<mxfile host="app.diagrams.net" agent="Mozilla/5.0 (Windows NT 10.0; Win64; x64) AppleWebKit/537.36 (KHTML, like Gecko) Chrome/129.0.0.0 Safari/537.36" version="24.7.17">
  <diagram name="Page-1" id="m-6iXahI__WeC2MNSPhf">
    <mxGraphModel dx="875" dy="576" grid="1" gridSize="10" guides="1" tooltips="1" connect="1" arrows="1" fold="1" page="1" pageScale="1" pageWidth="850" pageHeight="1100" math="0" shadow="0">
      <root>
        <mxCell id="0" />
        <mxCell id="1" parent="0" />
        <mxCell id="L0O7qhAtvohYCRZFIs2r-1" style="edgeStyle=orthogonalEdgeStyle;rounded=0;orthogonalLoop=1;jettySize=auto;html=1;exitX=0.5;exitY=1;exitDx=0;exitDy=0;entryX=0.5;entryY=0;entryDx=0;entryDy=0;" edge="1" parent="1" source="L0O7qhAtvohYCRZFIs2r-2" target="L0O7qhAtvohYCRZFIs2r-5">
          <mxGeometry relative="1" as="geometry" />
        </mxCell>
        <mxCell id="L0O7qhAtvohYCRZFIs2r-2" value="Pocetak" style="ellipse;whiteSpace=wrap;html=1;" vertex="1" parent="1">
          <mxGeometry x="360" y="10" width="110" height="40" as="geometry" />
        </mxCell>
        <mxCell id="L0O7qhAtvohYCRZFIs2r-3" value="" style="shape=trapezoid;perimeter=trapezoidPerimeter;whiteSpace=wrap;html=1;fixedSize=1;rotation=-180;" vertex="1" parent="1">
          <mxGeometry x="355" y="77" width="120" height="30" as="geometry" />
        </mxCell>
        <mxCell id="L0O7qhAtvohYCRZFIs2r-4" style="edgeStyle=orthogonalEdgeStyle;rounded=0;orthogonalLoop=1;jettySize=auto;html=1;exitX=0.5;exitY=1;exitDx=0;exitDy=0;entryX=0.5;entryY=0;entryDx=0;entryDy=0;" edge="1" parent="1" source="L0O7qhAtvohYCRZFIs2r-5" target="L0O7qhAtvohYCRZFIs2r-8">
          <mxGeometry relative="1" as="geometry" />
        </mxCell>
        <mxCell id="L0O7qhAtvohYCRZFIs2r-5" value="a, b, c" style="text;html=1;align=center;verticalAlign=middle;whiteSpace=wrap;rounded=0;" vertex="1" parent="1">
          <mxGeometry x="385" y="77" width="60" height="30" as="geometry" />
        </mxCell>
        <mxCell id="L0O7qhAtvohYCRZFIs2r-6" style="edgeStyle=orthogonalEdgeStyle;rounded=0;orthogonalLoop=1;jettySize=auto;html=1;exitX=0.5;exitY=1;exitDx=0;exitDy=0;entryX=0.5;entryY=0;entryDx=0;entryDy=0;" edge="1" parent="1" source="L0O7qhAtvohYCRZFIs2r-8" target="L0O7qhAtvohYCRZFIs2r-10">
          <mxGeometry relative="1" as="geometry" />
        </mxCell>
        <mxCell id="L0O7qhAtvohYCRZFIs2r-7" style="edgeStyle=orthogonalEdgeStyle;rounded=0;orthogonalLoop=1;jettySize=auto;html=1;exitX=1;exitY=0.5;exitDx=0;exitDy=0;" edge="1" parent="1" source="L0O7qhAtvohYCRZFIs2r-8">
          <mxGeometry relative="1" as="geometry">
            <mxPoint x="410" y="270" as="targetPoint" />
            <Array as="points">
              <mxPoint x="495" y="150" />
              <mxPoint x="495" y="260" />
              <mxPoint x="410" y="260" />
            </Array>
          </mxGeometry>
        </mxCell>
        <mxCell id="L0O7qhAtvohYCRZFIs2r-8" value="a &amp;gt; b" style="shape=hexagon;perimeter=hexagonPerimeter2;whiteSpace=wrap;html=1;fixedSize=1;" vertex="1" parent="1">
          <mxGeometry x="355" y="130" width="120" height="40" as="geometry" />
        </mxCell>
        <mxCell id="L0O7qhAtvohYCRZFIs2r-9" style="edgeStyle=orthogonalEdgeStyle;rounded=0;orthogonalLoop=1;jettySize=auto;html=1;exitX=0.5;exitY=1;exitDx=0;exitDy=0;entryX=0.5;entryY=0;entryDx=0;entryDy=0;" edge="1" parent="1" source="L0O7qhAtvohYCRZFIs2r-10" target="L0O7qhAtvohYCRZFIs2r-14">
          <mxGeometry relative="1" as="geometry">
            <Array as="points">
              <mxPoint x="412" y="250" />
            </Array>
          </mxGeometry>
        </mxCell>
        <mxCell id="L0O7qhAtvohYCRZFIs2r-10" value="t = a&lt;div&gt;a = b&lt;/div&gt;&lt;div&gt;b = t&lt;/div&gt;" style="rounded=0;whiteSpace=wrap;html=1;" vertex="1" parent="1">
          <mxGeometry x="355" y="190" width="120" height="60" as="geometry" />
        </mxCell>
        <mxCell id="L0O7qhAtvohYCRZFIs2r-11" value="DA" style="text;html=1;align=center;verticalAlign=middle;whiteSpace=wrap;rounded=0;" vertex="1" parent="1">
          <mxGeometry x="410" y="170" width="60" height="30" as="geometry" />
        </mxCell>
        <mxCell id="L0O7qhAtvohYCRZFIs2r-12" style="edgeStyle=orthogonalEdgeStyle;rounded=0;orthogonalLoop=1;jettySize=auto;html=1;exitX=0.5;exitY=1;exitDx=0;exitDy=0;entryX=0.5;entryY=0;entryDx=0;entryDy=0;" edge="1" parent="1" source="L0O7qhAtvohYCRZFIs2r-14" target="L0O7qhAtvohYCRZFIs2r-17">
          <mxGeometry relative="1" as="geometry" />
        </mxCell>
        <mxCell id="L0O7qhAtvohYCRZFIs2r-13" style="edgeStyle=orthogonalEdgeStyle;rounded=0;orthogonalLoop=1;jettySize=auto;html=1;exitX=1;exitY=0.5;exitDx=0;exitDy=0;entryX=0.5;entryY=0;entryDx=0;entryDy=0;" edge="1" parent="1" source="L0O7qhAtvohYCRZFIs2r-14">
          <mxGeometry relative="1" as="geometry">
            <Array as="points">
              <mxPoint x="490" y="290" />
              <mxPoint x="490" y="390" />
              <mxPoint x="420" y="390" />
            </Array>
            <mxPoint x="420" y="400" as="targetPoint" />
          </mxGeometry>
        </mxCell>
        <mxCell id="L0O7qhAtvohYCRZFIs2r-14" value="a &amp;gt; c" style="shape=hexagon;perimeter=hexagonPerimeter2;whiteSpace=wrap;html=1;fixedSize=1;" vertex="1" parent="1">
          <mxGeometry x="355" y="271" width="115" height="39" as="geometry" />
        </mxCell>
        <mxCell id="L0O7qhAtvohYCRZFIs2r-15" value="NE" style="text;html=1;align=center;verticalAlign=middle;whiteSpace=wrap;rounded=0;" vertex="1" parent="1">
          <mxGeometry x="460" y="130" width="60" height="30" as="geometry" />
        </mxCell>
        <mxCell id="L0O7qhAtvohYCRZFIs2r-16" style="edgeStyle=orthogonalEdgeStyle;rounded=0;orthogonalLoop=1;jettySize=auto;html=1;exitX=0.5;exitY=1;exitDx=0;exitDy=0;entryX=0.5;entryY=0;entryDx=0;entryDy=0;" edge="1" parent="1" source="L0O7qhAtvohYCRZFIs2r-17">
          <mxGeometry relative="1" as="geometry">
            <mxPoint x="420" y="400" as="targetPoint" />
          </mxGeometry>
        </mxCell>
        <mxCell id="L0O7qhAtvohYCRZFIs2r-17" value="t = a&lt;div&gt;a = c&lt;/div&gt;&lt;div&gt;c = t&lt;/div&gt;" style="rounded=0;whiteSpace=wrap;html=1;" vertex="1" parent="1">
          <mxGeometry x="350" y="330" width="120" height="50" as="geometry" />
        </mxCell>
        <mxCell id="L0O7qhAtvohYCRZFIs2r-18" style="edgeStyle=orthogonalEdgeStyle;rounded=0;orthogonalLoop=1;jettySize=auto;html=1;exitX=0.5;exitY=1;exitDx=0;exitDy=0;entryX=0.5;entryY=0;entryDx=0;entryDy=0;" edge="1" parent="1" target="L0O7qhAtvohYCRZFIs2r-22">
          <mxGeometry relative="1" as="geometry">
            <mxPoint x="420" y="430" as="sourcePoint" />
          </mxGeometry>
        </mxCell>
        <mxCell id="L0O7qhAtvohYCRZFIs2r-20" value="DA" style="text;html=1;align=center;verticalAlign=middle;whiteSpace=wrap;rounded=0;" vertex="1" parent="1">
          <mxGeometry x="399" y="305" width="60" height="30" as="geometry" />
        </mxCell>
        <mxCell id="L0O7qhAtvohYCRZFIs2r-21" value="NE" style="text;html=1;align=center;verticalAlign=middle;whiteSpace=wrap;rounded=0;" vertex="1" parent="1">
          <mxGeometry x="459" y="266" width="60" height="30" as="geometry" />
        </mxCell>
        <mxCell id="L0O7qhAtvohYCRZFIs2r-23" style="edgeStyle=orthogonalEdgeStyle;rounded=0;orthogonalLoop=1;jettySize=auto;html=1;exitX=0.5;exitY=1;exitDx=0;exitDy=0;entryX=0.5;entryY=0;entryDx=0;entryDy=0;" edge="1" parent="1" source="L0O7qhAtvohYCRZFIs2r-25" target="L0O7qhAtvohYCRZFIs2r-27">
          <mxGeometry relative="1" as="geometry" />
        </mxCell>
        <mxCell id="L0O7qhAtvohYCRZFIs2r-24" style="edgeStyle=orthogonalEdgeStyle;rounded=0;orthogonalLoop=1;jettySize=auto;html=1;exitX=1;exitY=0.5;exitDx=0;exitDy=0;entryX=0.5;entryY=0;entryDx=0;entryDy=0;" edge="1" parent="1" source="L0O7qhAtvohYCRZFIs2r-25">
          <mxGeometry relative="1" as="geometry">
            <Array as="points">
              <mxPoint x="488" y="419" />
              <mxPoint x="488" y="519" />
              <mxPoint x="418" y="519" />
            </Array>
            <mxPoint x="418" y="529" as="targetPoint" />
          </mxGeometry>
        </mxCell>
        <mxCell id="L0O7qhAtvohYCRZFIs2r-25" value="b &amp;gt; c" style="shape=hexagon;perimeter=hexagonPerimeter2;whiteSpace=wrap;html=1;fixedSize=1;" vertex="1" parent="1">
          <mxGeometry x="353" y="400" width="115" height="39" as="geometry" />
        </mxCell>
        <mxCell id="L0O7qhAtvohYCRZFIs2r-26" style="edgeStyle=orthogonalEdgeStyle;rounded=0;orthogonalLoop=1;jettySize=auto;html=1;exitX=0.5;exitY=1;exitDx=0;exitDy=0;entryX=0.5;entryY=0;entryDx=0;entryDy=0;" edge="1" parent="1" source="L0O7qhAtvohYCRZFIs2r-27">
          <mxGeometry relative="1" as="geometry">
            <mxPoint x="418" y="529" as="targetPoint" />
          </mxGeometry>
        </mxCell>
        <mxCell id="L0O7qhAtvohYCRZFIs2r-27" value="t = b&lt;div&gt;b = c&lt;/div&gt;&lt;div&gt;c = t&lt;/div&gt;" style="rounded=0;whiteSpace=wrap;html=1;" vertex="1" parent="1">
          <mxGeometry x="348" y="459" width="120" height="50" as="geometry" />
        </mxCell>
        <mxCell id="L0O7qhAtvohYCRZFIs2r-28" value="DA" style="text;html=1;align=center;verticalAlign=middle;whiteSpace=wrap;rounded=0;" vertex="1" parent="1">
          <mxGeometry x="397" y="434" width="60" height="30" as="geometry" />
        </mxCell>
        <mxCell id="L0O7qhAtvohYCRZFIs2r-29" value="NE" style="text;html=1;align=center;verticalAlign=middle;whiteSpace=wrap;rounded=0;" vertex="1" parent="1">
          <mxGeometry x="457" y="395" width="60" height="30" as="geometry" />
        </mxCell>
        <mxCell id="L0O7qhAtvohYCRZFIs2r-32" style="edgeStyle=orthogonalEdgeStyle;rounded=0;orthogonalLoop=1;jettySize=auto;html=1;exitX=0.5;exitY=1;exitDx=0;exitDy=0;entryX=0.5;entryY=0;entryDx=0;entryDy=0;" edge="1" parent="1" source="L0O7qhAtvohYCRZFIs2r-30" target="L0O7qhAtvohYCRZFIs2r-31">
          <mxGeometry relative="1" as="geometry" />
        </mxCell>
        <mxCell id="L0O7qhAtvohYCRZFIs2r-30" value="a, b, c" style="shape=trapezoid;perimeter=trapezoidPerimeter;whiteSpace=wrap;html=1;fixedSize=1;" vertex="1" parent="1">
          <mxGeometry x="353" y="530" width="127" height="30" as="geometry" />
        </mxCell>
        <mxCell id="L0O7qhAtvohYCRZFIs2r-31" value="KRAJ" style="ellipse;whiteSpace=wrap;html=1;" vertex="1" parent="1">
          <mxGeometry x="360" y="580" width="120" height="40" as="geometry" />
        </mxCell>
      </root>
    </mxGraphModel>
  </diagram>
</mxfile>
